<svg width="128" height="22" viewBox="0 0 128 22" fill="none" xmlns="http://www.w3.org/2000/svg">
<path d="M5.48683 17H2.49013V4.82721C2.49013 3.97987 2.65546 3.26686 2.98613 2.68819C3.32369 2.10263 3.79559 1.66174 4.40181 1.36551C5.01493 1.0624 5.74172 0.910841 6.58217 0.910841C6.85773 0.910841 7.12295 0.931508 7.37784 0.972841C7.63274 1.00729 7.88074 1.05206 8.12185 1.10718L8.09085 3.34953C7.95996 3.31509 7.82218 3.29098 7.67751 3.2772C7.53285 3.26342 7.36407 3.25653 7.17118 3.25653C6.81295 3.25653 6.50639 3.31853 6.2515 3.44253C6.0035 3.55964 5.81405 3.73531 5.68316 3.96954C5.55227 4.20376 5.48683 4.48965 5.48683 4.82721V17ZM7.71885 5.81922V7.92724H0.826446V5.81922H7.71885ZM8.80386 11.5233V11.3063C8.80386 10.4865 8.92097 9.73215 9.15519 9.04325C9.38942 8.34747 9.73042 7.74469 10.1782 7.2349C10.626 6.72512 11.1771 6.32901 11.8316 6.04656C12.486 5.75722 13.2369 5.61255 14.0842 5.61255C14.9316 5.61255 15.6859 5.75722 16.3473 6.04656C17.0086 6.32901 17.5632 6.72512 18.0109 7.2349C18.4656 7.74469 18.8101 8.34747 19.0443 9.04325C19.2785 9.73215 19.3956 10.4865 19.3956 11.3063V11.5233C19.3956 12.3362 19.2785 13.0905 19.0443 13.7863C18.8101 14.4752 18.4656 15.078 18.0109 15.5947C17.5632 16.1044 17.0121 16.5006 16.3576 16.783C15.7031 17.0654 14.9523 17.2067 14.1049 17.2067C13.2576 17.2067 12.5032 17.0654 11.8419 16.783C11.1874 16.5006 10.6329 16.1044 10.1782 15.5947C9.73042 15.078 9.38942 14.4752 9.15519 13.7863C8.92097 13.0905 8.80386 12.3362 8.80386 11.5233ZM11.7799 11.3063V11.5233C11.7799 11.9917 11.8212 12.4292 11.9039 12.8356C11.9866 13.2421 12.1174 13.6003 12.2966 13.9103C12.4826 14.2134 12.7237 14.4511 13.0199 14.6233C13.3161 14.7955 13.6778 14.8816 14.1049 14.8816C14.5182 14.8816 14.873 14.7955 15.1693 14.6233C15.4655 14.4511 15.7031 14.2134 15.8823 13.9103C16.0614 13.6003 16.1923 13.2421 16.2749 12.8356C16.3645 12.4292 16.4093 11.9917 16.4093 11.5233V11.3063C16.4093 10.8516 16.3645 10.4245 16.2749 10.0249C16.1923 9.61848 16.0579 9.26026 15.8719 8.95025C15.6928 8.63336 15.4551 8.38536 15.1589 8.20625C14.8627 8.02713 14.5045 7.93758 14.0842 7.93758C13.664 7.93758 13.3058 8.02713 13.0096 8.20625C12.7202 8.38536 12.4826 8.63336 12.2966 8.95025C12.1174 9.26026 11.9866 9.61848 11.9039 10.0249C11.8212 10.4245 11.7799 10.8516 11.7799 11.3063ZM20.7493 11.5233V11.3063C20.7493 10.4865 20.8664 9.73215 21.1006 9.04325C21.3349 8.34747 21.6759 7.74469 22.1237 7.2349C22.5714 6.72512 23.1226 6.32901 23.777 6.04656C24.4315 5.75722 25.1824 5.61255 26.0297 5.61255C26.877 5.61255 27.6314 5.75722 28.2927 6.04656C28.9541 6.32901 29.5086 6.72512 29.9564 7.2349C30.4111 7.74469 30.7555 8.34747 30.9897 9.04325C31.224 9.73215 31.3411 10.4865 31.3411 11.3063V11.5233C31.3411 12.3362 31.224 13.0905 30.9897 13.7863C30.7555 14.4752 30.4111 15.078 29.9564 15.5947C29.5086 16.1044 28.9575 16.5006 28.3031 16.783C27.6486 17.0654 26.8977 17.2067 26.0504 17.2067C25.203 17.2067 24.4487 17.0654 23.7873 16.783C23.1329 16.5006 22.5783 16.1044 22.1237 15.5947C21.6759 15.078 21.3349 14.4752 21.1006 13.7863C20.8664 13.0905 20.7493 12.3362 20.7493 11.5233ZM23.7253 11.3063V11.5233C23.7253 11.9917 23.7667 12.4292 23.8493 12.8356C23.932 13.2421 24.0629 13.6003 24.242 13.9103C24.428 14.2134 24.6691 14.4511 24.9654 14.6233C25.2616 14.7955 25.6232 14.8816 26.0504 14.8816C26.4637 14.8816 26.8185 14.7955 27.1147 14.6233C27.4109 14.4511 27.6486 14.2134 27.8277 13.9103C28.0068 13.6003 28.1377 13.2421 28.2204 12.8356C28.3099 12.4292 28.3547 11.9917 28.3547 11.5233V11.3063C28.3547 10.8516 28.3099 10.4245 28.2204 10.0249C28.1377 9.61848 28.0034 9.26026 27.8174 8.95025C27.6383 8.63336 27.4006 8.38536 27.1044 8.20625C26.8081 8.02713 26.4499 7.93758 26.0297 7.93758C25.6095 7.93758 25.2512 8.02713 24.955 8.20625C24.6657 8.38536 24.428 8.63336 24.242 8.95025C24.0629 9.26026 23.932 9.61848 23.8493 10.0249C23.7667 10.4245 23.7253 10.8516 23.7253 11.3063ZM39.7732 14.5613V1.12784H42.7699V17H40.0728L39.7732 14.5613ZM32.7051 11.5439V11.3269C32.7051 10.4727 32.8015 9.69771 32.9944 9.00192C33.1873 8.29925 33.4698 7.69646 33.8418 7.19357C34.2138 6.69068 34.6719 6.30145 35.2161 6.02589C35.7603 5.75033 36.3804 5.61255 37.0761 5.61255C37.7306 5.61255 38.3024 5.75033 38.7915 6.02589C39.2875 6.30145 39.7077 6.69412 40.0522 7.2039C40.4035 7.7068 40.686 8.30269 40.8995 8.99159C41.1131 9.67359 41.2681 10.421 41.3645 11.2339V11.7093C41.2681 12.4877 41.1131 13.2111 40.8995 13.8793C40.686 14.5475 40.4035 15.1331 40.0522 15.636C39.7077 16.132 39.2875 16.5178 38.7915 16.7933C38.2955 17.0689 37.7168 17.2067 37.0555 17.2067C36.3597 17.2067 35.7397 17.0654 35.1955 16.783C34.6581 16.5006 34.2034 16.1044 33.8314 15.5947C33.4663 15.0849 33.1873 14.4855 32.9944 13.7966C32.8015 13.1077 32.7051 12.3568 32.7051 11.5439ZM35.6811 11.3269V11.5439C35.6811 12.0055 35.7156 12.4361 35.7845 12.8356C35.8602 13.2352 35.9808 13.59 36.1461 13.9C36.3184 14.2031 36.5388 14.4408 36.8075 14.613C37.083 14.7783 37.4171 14.861 37.8098 14.861C38.3196 14.861 38.7398 14.7473 39.0705 14.52C39.4012 14.2858 39.6526 13.9654 39.8248 13.559C40.0039 13.1525 40.1073 12.6841 40.1348 12.1536V10.7999C40.1142 10.3659 40.0522 9.97671 39.9488 9.63226C39.8524 9.28092 39.7077 8.98125 39.5148 8.73325C39.3288 8.48525 39.0946 8.29236 38.8122 8.15458C38.5366 8.0168 38.2094 7.94791 37.8305 7.94791C37.4447 7.94791 37.114 8.03747 36.8385 8.21658C36.5629 8.3888 36.339 8.62647 36.1668 8.92959C36.0015 9.2327 35.8775 9.59093 35.7948 10.0043C35.719 10.4107 35.6811 10.8516 35.6811 11.3269ZM55.511 17.2067C54.643 17.2067 53.8645 17.0689 53.1756 16.7933C52.4867 16.5109 51.9012 16.1217 51.4189 15.6257C50.9436 15.1296 50.5785 14.5544 50.3236 13.9C50.0687 13.2386 49.9413 12.536 49.9413 11.7919V11.3786C49.9413 10.5313 50.0618 9.75626 50.3029 9.05359C50.544 8.35091 50.8885 7.74124 51.3363 7.22457C51.791 6.7079 52.3421 6.31178 52.9896 6.03622C53.6372 5.75378 54.3674 5.61255 55.1803 5.61255C55.9725 5.61255 56.6752 5.74344 57.2883 6.00522C57.9015 6.267 58.4147 6.63901 58.828 7.12124C59.2482 7.60346 59.5651 8.18213 59.7787 8.85725C59.9923 9.52548 60.099 10.2695 60.099 11.0893V12.3293H51.2123V10.3453H57.1747V10.1179C57.1747 9.70459 57.0989 9.33604 56.9473 9.01225C56.8027 8.68158 56.5822 8.4198 56.286 8.22691C55.9898 8.03402 55.6109 7.93758 55.1493 7.93758C54.7566 7.93758 54.4191 8.02369 54.1366 8.19591C53.8542 8.36814 53.6234 8.60925 53.4443 8.91925C53.2721 9.22926 53.1412 9.59437 53.0516 10.0146C52.969 10.4279 52.9276 10.8826 52.9276 11.3786V11.7919C52.9276 12.2397 52.9896 12.6531 53.1136 13.032C53.2445 13.4109 53.4271 13.7381 53.6613 14.0136C53.9024 14.2892 54.1918 14.5028 54.5293 14.6543C54.8738 14.8059 55.263 14.8816 55.697 14.8816C56.2343 14.8816 56.7338 14.7783 57.1953 14.5716C57.6638 14.3581 58.0668 14.0377 58.4043 13.6106L59.851 15.1813C59.6168 15.5189 59.2965 15.8427 58.89 16.1527C58.4905 16.4627 58.0082 16.7176 57.4433 16.9173C56.8784 17.1102 56.2343 17.2067 55.511 17.2067ZM64.1911 5.81922L66.0408 9.21892L67.9421 5.81922H71.1145L67.9524 11.2856L71.2591 17H68.0764L66.0614 13.404L64.0464 17H60.8637L64.1704 11.2856L61.0084 5.81922H64.1911ZM75.5372 7.96858V21.2987H72.5612V5.81922H75.3202L75.5372 7.96858ZM82.6156 11.2856V11.5026C82.6156 12.3155 82.5191 13.0698 82.3263 13.7656C82.1402 14.4614 81.8647 15.0676 81.4996 15.5843C81.1345 16.0941 80.6798 16.4937 80.1356 16.783C79.5982 17.0654 78.9782 17.2067 78.2755 17.2067C77.5935 17.2067 77.0011 17.0689 76.4982 16.7933C75.9953 16.5178 75.5716 16.132 75.2272 15.636C74.8896 15.1331 74.6175 14.551 74.4108 13.8896C74.2042 13.2283 74.0457 12.5187 73.9355 11.7609V11.1926C74.0457 10.3797 74.2042 9.6357 74.4108 8.96059C74.6175 8.27858 74.8896 7.68957 75.2272 7.19357C75.5716 6.69068 75.9919 6.30145 76.4879 6.02589C76.9908 5.75033 77.5798 5.61255 78.2549 5.61255C78.9644 5.61255 79.5879 5.74689 80.1252 6.01556C80.6695 6.28423 81.1241 6.67001 81.4892 7.1729C81.8612 7.6758 82.1402 8.27514 82.3263 8.97092C82.5191 9.66671 82.6156 10.4383 82.6156 11.2856ZM79.6292 11.5026V11.2856C79.6292 10.8103 79.5879 10.3728 79.5052 9.97326C79.4294 9.56682 79.3054 9.21203 79.1332 8.90892C78.9679 8.60581 78.7474 8.37158 78.4719 8.20625C78.2032 8.03402 77.876 7.94791 77.4902 7.94791C77.0838 7.94791 76.7359 8.01336 76.4465 8.14425C76.1641 8.27514 75.9333 8.46458 75.7542 8.71258C75.5751 8.96059 75.4407 9.25681 75.3512 9.60126C75.2616 9.94571 75.2065 10.3349 75.1858 10.7689V12.2053C75.2203 12.7151 75.3167 13.1732 75.4752 13.5796C75.6336 13.9792 75.8782 14.2961 76.2089 14.5303C76.5395 14.7645 76.9735 14.8816 77.5109 14.8816C77.9035 14.8816 78.2342 14.7955 78.5029 14.6233C78.7715 14.4442 78.9886 14.1996 79.1539 13.8896C79.3261 13.5796 79.4467 13.2214 79.5156 12.815C79.5913 12.4085 79.6292 11.9711 79.6292 11.5026ZM87.6066 1.12784V17H84.6203V1.12784H87.6066ZM89.5907 11.5233V11.3063C89.5907 10.4865 89.7078 9.73215 89.942 9.04325C90.1762 8.34747 90.5172 7.74469 90.965 7.2349C91.4128 6.72512 91.9639 6.32901 92.6184 6.04656C93.2728 5.75722 94.0237 5.61255 94.871 5.61255C95.7184 5.61255 96.4727 5.75722 97.1341 6.04656C97.7954 6.32901 98.35 6.72512 98.7978 7.2349C99.2524 7.74469 99.5969 8.34747 99.8311 9.04325C100.065 9.73215 100.182 10.4865 100.182 11.3063V11.5233C100.182 12.3362 100.065 13.0905 99.8311 13.7863C99.5969 14.4752 99.2524 15.078 98.7978 15.5947C98.35 16.1044 97.7989 16.5006 97.1444 16.783C96.49 17.0654 95.7391 17.2067 94.8917 17.2067C94.0444 17.2067 93.29 17.0654 92.6287 16.783C91.9742 16.5006 91.4197 16.1044 90.965 15.5947C90.5172 15.078 90.1762 14.4752 89.942 13.7863C89.7078 13.0905 89.5907 12.3362 89.5907 11.5233ZM92.5667 11.3063V11.5233C92.5667 11.9917 92.608 12.4292 92.6907 12.8356C92.7734 13.2421 92.9042 13.6003 93.0834 13.9103C93.2694 14.2134 93.5105 14.4511 93.8067 14.6233C94.1029 14.7955 94.4646 14.8816 94.8917 14.8816C95.305 14.8816 95.6598 14.7955 95.9561 14.6233C96.2523 14.4511 96.49 14.2134 96.6691 13.9103C96.8482 13.6003 96.9791 13.2421 97.0617 12.8356C97.1513 12.4292 97.1961 11.9917 97.1961 11.5233V11.3063C97.1961 10.8516 97.1513 10.4245 97.0617 10.0249C96.9791 9.61848 96.8447 9.26026 96.6587 8.95025C96.4796 8.63336 96.2419 8.38536 95.9457 8.20625C95.6495 8.02713 95.2913 7.93758 94.871 7.93758C94.4508 7.93758 94.0926 8.02713 93.7964 8.20625C93.507 8.38536 93.2694 8.63336 93.0834 8.95025C92.9042 9.26026 92.7734 9.61848 92.6907 10.0249C92.608 10.4245 92.5667 10.8516 92.5667 11.3063ZM104.987 8.25791V17H102.011V5.81922H104.812L104.987 8.25791ZM108.356 5.74689L108.305 8.50592C108.16 8.48525 107.984 8.46803 107.778 8.45425C107.578 8.43358 107.395 8.42325 107.23 8.42325C106.81 8.42325 106.444 8.47836 106.134 8.58858C105.831 8.69192 105.576 8.84692 105.37 9.05359C105.17 9.26026 105.018 9.5117 104.915 9.80793C104.819 10.1042 104.764 10.4417 104.75 10.8206L104.15 10.6346C104.15 9.91126 104.223 9.24648 104.367 8.64025C104.512 8.02713 104.722 7.49324 104.998 7.03857C105.28 6.5839 105.625 6.23256 106.031 5.98456C106.438 5.73656 106.903 5.61255 107.426 5.61255C107.592 5.61255 107.76 5.62633 107.933 5.65389C108.105 5.67455 108.246 5.70555 108.356 5.74689ZM114.701 17.2067C113.833 17.2067 113.054 17.0689 112.366 16.7933C111.677 16.5109 111.091 16.1217 110.609 15.6257C110.134 15.1296 109.768 14.5544 109.514 13.9C109.259 13.2386 109.131 12.536 109.131 11.7919V11.3786C109.131 10.5313 109.252 9.75626 109.493 9.05359C109.734 8.35091 110.078 7.74124 110.526 7.22457C110.981 6.7079 111.532 6.31178 112.18 6.03622C112.827 5.75378 113.557 5.61255 114.37 5.61255C115.162 5.61255 115.865 5.74344 116.478 6.00522C117.091 6.267 117.605 6.63901 118.018 7.12124C118.438 7.60346 118.755 8.18213 118.969 8.85725C119.182 9.52548 119.289 10.2695 119.289 11.0893V12.3293H110.402V10.3453H116.365V10.1179C116.365 9.70459 116.289 9.33604 116.137 9.01225C115.993 8.68158 115.772 8.4198 115.476 8.22691C115.18 8.03402 114.801 7.93758 114.339 7.93758C113.947 7.93758 113.609 8.02369 113.327 8.19591C113.044 8.36814 112.813 8.60925 112.634 8.91925C112.462 9.22926 112.331 9.59437 112.242 10.0146C112.159 10.4279 112.118 10.8826 112.118 11.3786V11.7919C112.118 12.2397 112.18 12.6531 112.304 13.032C112.434 13.4109 112.617 13.7381 112.851 14.0136C113.092 14.2892 113.382 14.5028 113.719 14.6543C114.064 14.8059 114.453 14.8816 114.887 14.8816C115.424 14.8816 115.924 14.7783 116.385 14.5716C116.854 14.3581 117.257 14.0377 117.594 13.6106L119.041 15.1813C118.807 15.5189 118.486 15.8427 118.08 16.1527C117.68 16.4627 117.198 16.7176 116.633 16.9173C116.068 17.1102 115.424 17.2067 114.701 17.2067ZM123.96 8.25791V17H120.984V5.81922H123.784L123.96 8.25791ZM127.328 5.74689L127.277 8.50592C127.132 8.48525 126.956 8.46803 126.75 8.45425C126.55 8.43358 126.367 8.42325 126.202 8.42325C125.782 8.42325 125.417 8.47836 125.107 8.58858C124.804 8.69192 124.549 8.84692 124.342 9.05359C124.142 9.26026 123.991 9.5117 123.887 9.80793C123.791 10.1042 123.736 10.4417 123.722 10.8206L123.123 10.6346C123.123 9.91126 123.195 9.24648 123.34 8.64025C123.484 8.02713 123.694 7.49324 123.97 7.03857C124.252 6.5839 124.597 6.23256 125.003 5.98456C125.41 5.73656 125.875 5.61255 126.398 5.61255C126.564 5.61255 126.732 5.62633 126.905 5.65389C127.077 5.67455 127.218 5.70555 127.328 5.74689Z" fill="white"/>
</svg>
